<?xml version="1.0" encoding="UTF-8"?>
<svg id="_Слой_1" data-name="Слой 1" xmlns="http://www.w3.org/2000/svg" viewBox="0 0 1867 704.69">
  <defs>
    <style>
      .cls-1 {
        fill: #9d4ea6;
      }

      .cls-1, .cls-2 {
        stroke-width: 0px;
      }

      .cls-2 {
        fill: #0f050f;
      }
    </style>
  </defs>
  <g>
    <path class="cls-2" d="M21.6,557.53l13.96,23.26h-8.31l-11.3-20.6c-2.66.66-5.65,1-8.98,1v19.28H0v-42.54h6.97v16.94c4.43-.44,7.65-1.1,9.64-1.99,2.65-1.32,4.87-3.2,6.65-5.64,1.77-2.65,2.99-5.87,3.65-9.64h7.65c-.88,4.65-2.44,8.63-4.66,11.97-1.99,3.1-4.76,5.76-8.31,7.97Z"/>
    <path class="cls-2" d="M100.56,575.48v14.96h-7.31v-52.51h7.31v4.98c2.88-2.44,5.09-3.99,6.65-4.66,1.99-.87,4.1-1.32,6.31-1.32,5.53,0,10.19,1.88,13.96,5.64,3.32,4,4.98,9.53,4.98,16.62,0,.66-.22,2.77-.66,6.3-.67,2.89-1.67,5.55-3,7.98-1.77,2.65-3.87,4.65-6.31,5.99-2.44,1.55-5.09,2.32-7.97,2.32-5.1,0-9.75-2.1-13.96-6.31ZM100.56,550.88v14.96c2.22,3.32,4.32,5.54,6.31,6.65,2.22,1.56,4.32,2.33,6.31,2.33,3.32,0,5.99-1.22,7.98-3.66,2.65-3.1,3.99-6.86,3.99-11.3,0-5.76-1.11-9.85-3.32-12.29-2.22-2.66-5.1-3.99-8.64-3.99-2.22,0-4.43.55-6.65,1.65-1.77.9-3.76,2.79-5.98,5.65Z"/>
    <path class="cls-2" d="M222.37,558.53h-30.24c.44,5.98,1.77,10.09,3.99,12.3,2.44,2.44,5.65,3.65,9.64,3.65,2.22,0,4.43-.55,6.65-1.66,1.33-.89,2.77-2.66,4.32-5.33l5.32,3.33c-2.66,3.99-5.22,6.64-7.65,7.97-2.22,1.32-5.21,1.99-8.98,1.99-5.76,0-10.63-2.1-14.62-6.31-3.99-4.42-5.98-9.85-5.98-16.28s1.99-11.75,5.98-15.96c3.99-4.2,8.42-6.3,13.3-6.3,3.76,0,7.2.88,10.3,2.65,2.65,1.99,4.66,4.65,5.98,7.98,1.11,2.22,1.77,6.2,1.99,11.96ZM192.8,552.55h21.94c-.22-3.32-1.22-5.88-3-7.65-2.44-1.77-4.87-2.66-7.31-2.66-2.88,0-5.21.78-6.97,2.34-2.22,1.77-3.77,4.43-4.66,7.97Z"/>
    <path class="cls-2" d="M313.96,553.55v27.25h-6.98v-4.66c-3.32,2.22-6.31,3.66-8.98,4.33-2.22.65-4.76,1-7.64,1-3.55,0-6.44-1.12-8.64-3.33-2.22-1.99-3.33-4.65-3.33-7.97,0-2.88.88-5.53,2.65-7.97,1.78-1.99,4.1-3.66,6.99-4.98,3.32-1.34,9.52-3.11,18.61-5.33-.45-3.54-1.22-5.86-2.33-6.97-2.22-1.77-4.65-2.66-7.31-2.66-2.22,0-4.1.56-5.64,1.67-1.56,1.11-2.66,2.77-3.32,4.98h-8.31c1.32-4.43,3.1-7.42,5.32-8.97,3.54-2.22,7.64-3.33,12.29-3.33,5.32,0,9.41,1.44,12.29,4.32,2.88,2.88,4.32,7.1,4.32,12.63ZM306.99,568.17v-9.64c-9.75,1.78-15.95,3.77-18.61,5.98-1.78,1.33-2.66,3.11-2.66,5.33,0,1.55.66,2.88,1.99,3.99,1.11,1.11,2.54,1.66,4.32,1.66,4.43,0,9.42-2.43,14.96-7.31Z"/>
    <path class="cls-2" d="M372.65,544.23v-6.64h36.89v6.64h-14.95v35.89h-6.99v-35.89h-14.96Z"/>
    <path class="cls-2" d="M494.81,543.91v-5.98h7.31v42.54h-7.31v-27.26l-20.27,22.6v4.66h-6.97v-42.54h6.97v28.25l20.27-22.27Z"/>
    <path class="cls-2" d="M580.41,580.8h-15.62v-43.2h16.95c5.09,0,8.86.88,11.3,2.65,2.21,1.99,3.33,4.56,3.33,7.65,0,2.22-.67,4.21-1.99,5.98-1.56,1.99-3.66,3.44-6.31,4.33,3.99,1.32,6.53,2.77,7.64,4.31,1.56,2.22,2.33,4.43,2.33,6.65,0,2.89-.66,5.21-1.99,6.98-1.78,1.99-3.55,3.33-5.32,3.99-2.22.45-5.65.67-10.3.67ZM579.74,543.58h-7.97v11.62h7.97c3.55,0,6.09-.66,7.65-1.99,1.55-1.33,2.33-2.65,2.33-3.99,0-1.99-.66-3.43-1.99-4.32-1.11-.88-3.77-1.32-7.98-1.32ZM578.08,560.86h-6.31v13.62h8.64c3.99,0,6.75-.55,8.31-1.66,1.11-1.11,1.66-2.54,1.66-4.33,0-2.43-.77-4.09-2.32-4.98-2.44-1.77-5.76-2.65-9.97-2.65Z"/>
    <path class="cls-2" d="M681.96,553.55v-15.29h6.99v42.22h-6.99v-20.94h-19.94v20.94h-6.97v-42.22h6.97v15.29h19.94Z"/>
    <path class="cls-2" d="M781.86,553.55v27.25h-6.97v-4.66c-3.33,2.22-6.31,3.66-8.98,4.33-2.22.65-4.76,1-7.64,1-3.55,0-6.44-1.12-8.64-3.33-2.22-1.99-3.33-4.65-3.33-7.97,0-2.88.88-5.53,2.65-7.97,1.78-1.99,4.1-3.66,6.99-4.98,3.33-1.34,9.52-3.11,18.61-5.33-.45-3.54-1.22-5.86-2.33-6.97-2.22-1.77-4.65-2.66-7.31-2.66-2.22,0-4.1.56-5.64,1.67-1.56,1.11-2.66,2.77-3.33,4.98h-8.31c1.32-4.43,3.1-7.42,5.32-8.97,3.54-2.22,7.64-3.33,12.29-3.33,5.32,0,9.42,1.44,12.29,4.32,2.88,2.88,4.32,7.1,4.32,12.63ZM774.88,568.17v-9.64c-9.75,1.78-15.95,3.77-18.61,5.98-1.78,1.33-2.66,3.11-2.66,5.33,0,1.55.66,2.88,1.99,3.99,1.11,1.11,2.54,1.66,4.32,1.66,4.43,0,9.42-2.43,14.96-7.31Z"/>
    <path class="cls-2" d="M856.83,537.26h17.95v43.21h-6.97v-17.96h-9.64l-8.98,17.96h-8.31l10.3-18.62c-3.99-1.33-6.64-2.99-7.97-4.99-1.56-1.55-2.33-3.99-2.33-7.3,0-3.76,1.33-6.76,3.99-8.98,2.22-2.21,6.2-3.32,11.97-3.32ZM858.83,556.86h8.98v-13.95h-9.31c-3.76,0-6.43.55-7.97,1.67-1.56,1.32-2.33,2.99-2.33,4.98,0,2.22.77,3.99,2.33,5.31,1.77,1.34,4.54,1.99,8.31,1.99Z"/>
    <path class="cls-2" d="M1036.43,580.47v-42.88h30.9v6.64h-23.59v36.24h-7.31Z"/>
    <path class="cls-2" d="M1132.65,575.48v14.96h-7.31v-52.51h7.31v4.98c2.88-2.44,5.09-3.99,6.65-4.66,1.99-.87,4.1-1.32,6.31-1.32,5.53,0,10.19,1.88,13.96,5.64,3.31,4,4.98,9.53,4.98,16.62,0,.66-.22,2.77-.66,6.3-.67,2.89-1.67,5.55-3,7.98-1.77,2.65-3.87,4.65-6.31,5.99-2.44,1.55-5.09,2.32-7.97,2.32-5.1,0-9.75-2.1-13.96-6.31ZM1132.65,550.88v14.96c2.22,3.32,4.32,5.54,6.31,6.65,2.22,1.56,4.32,2.33,6.31,2.33,3.33,0,5.99-1.22,7.98-3.66,2.65-3.1,3.99-6.86,3.99-11.3,0-5.76-1.11-9.85-3.32-12.29-2.22-2.66-5.1-3.99-8.64-3.99-2.22,0-4.43.55-6.65,1.65-1.77.9-3.76,2.79-5.98,5.65Z"/>
    <path class="cls-2" d="M1234.54,577.81l-15.95-39.88h7.65l11.97,30.56,10.96-30.56h7.98l-11.63,29.24c-4.43,11.3-7.65,17.95-9.64,19.94-2.44,2.43-5.98,3.65-10.64,3.65h-6.31v-6.3h8.31c1.33,0,2.44-.45,3.33-1.33,1.55-.88,2.88-2.65,3.99-5.32Z"/>
    <path class="cls-2" d="M1312.84,580.47v-42.88h33.23v42.88h-6.97v-37.23h-19.61v37.23h-6.64Z"/>
    <path class="cls-2" d="M1406.42,580.47v-42.88h33.23v42.88h-6.97v-37.23h-19.61v37.23h-6.64Z"/>
    <path class="cls-2" d="M1533.22,553.55v27.25h-6.97v-4.66c-3.33,2.22-6.31,3.66-8.98,4.33-2.22.65-4.76,1-7.64,1-3.55,0-6.44-1.12-8.64-3.33-2.22-1.99-3.33-4.65-3.33-7.97,0-2.88.88-5.53,2.65-7.97,1.78-1.99,4.1-3.66,6.99-4.98,3.33-1.34,9.52-3.11,18.61-5.33-.45-3.54-1.22-5.86-2.33-6.97-2.22-1.77-4.65-2.66-7.31-2.66-2.22,0-4.1.56-5.64,1.67-1.56,1.11-2.66,2.77-3.33,4.98h-8.31c1.32-4.43,3.1-7.42,5.32-8.97,3.54-2.22,7.64-3.33,12.29-3.33,5.32,0,9.42,1.44,12.29,4.32,2.88,2.88,4.32,7.1,4.32,12.63ZM1526.25,568.17v-9.64c-9.75,1.78-15.95,3.77-18.61,5.98-1.78,1.33-2.66,3.11-2.66,5.33,0,1.55.66,2.88,1.99,3.99,1.11,1.11,2.54,1.66,4.32,1.66,4.43,0,9.42-2.43,14.96-7.31Z"/>
  </g>
  <g>
    <path class="cls-1" d="M33.17,439.7c1.3-4.73,6.44-13.85,15.47-27.39,9.05-13.54,20.42-29.42,34.18-47.71,13.75-18.28,29.02-38.15,45.77-59.64,16.77-21.49,33.31-42.44,49.64-62.88,16.34-20.4,31.7-39.41,46.11-57.06,14.39-17.6,26.12-31.8,35.14-42.54,9.01-3.01,16.11-5.25,21.27-6.75,5.15-1.53,9.24-2.92,12.25-4.19,2.58.85,3,2.15,1.29,3.85-5.18,3.45-8.39,8.37-9.69,14.81-1.71,9.9-3.42,21.73-5.15,35.46-1.72,13.77-3.31,28.38-4.83,43.85-1.51,15.46-2.9,31.39-4.18,47.71-1.29,16.34-2.38,31.81-3.24,46.41-.85,14.61-1.51,28.04-1.93,40.29-.43,12.25-.63,22.03-.63,29.33,0,4.31.31,7.24.97,8.69.65,1.55,1.5,2.17,2.57,1.94,1.08-.19,2.27-1.04,3.55-2.58,1.28-1.5,2.58-3.09,3.87-4.82,4.73-6,12.47-15.58,23.2-28.69,10.74-13.11,23-27.95,36.76-44.48,13.75-16.56,28.37-33.85,43.85-51.9,15.47-18.05,30.3-35.13,44.46-51.25,14.2-16.11,26.98-30.53,38.36-43.19,11.39-12.68,19.89-21.61,25.47-26.77,6.88-3.42,15.27-6.64,25.14-9.65,9.88-3,17.84-6.46,23.85-10.32,1.28,0,2.36.55,3.23,1.61.85,1.08.85,2.26,0,3.55-7.32,3-12.58,5.59-15.78,7.74-3.23,2.16-5.93,6.24-8.07,12.24-5.17,16.35-10.42,35.36-15.8,57.06-5.38,21.72-10.31,43.95-14.81,66.74-4.52,22.78-8.3,45.02-11.3,66.72-3,21.72-4.5,40.73-4.5,57.06,0,6.04,1.38,10.22,4.19,12.57,2.8,2.39,6.12,3.54,10,3.54s8.14-.43,12.88-1.28c4.74-.85,9.03-2.16,12.89-3.86.85,0,1.4.55,1.62,1.61.21,1.08-.1,2.06-.97,2.91-4.29,1.28-9.35,2.81-15.15,4.51-5.81,1.72-11.6,3.45-17.41,5.14-5.83,1.72-11.18,3.35-16.12,4.84-4.94,1.5-9.13,2.68-12.57,3.54-5.17,0-9.35-.96-12.57-2.87-3.23-1.95-5.28-5.51-6.13-10.66.42-6.02,1.93-15.89,4.49-29.67,2.59-13.74,5.81-29.2,9.69-46.41,3.86-17.19,8.04-35.25,12.57-54.15,4.51-18.91,8.69-36.45,12.58-52.54,3.86-16.13,7.18-29.77,9.98-40.95,2.8-11.16,4.41-17.82,4.83-19.98,1.71-6.44,1.71-9.59,0-9.36-1.72.23-4.29,1.85-7.73,4.86-8.16,7.3-17.73,16.63-28.69,28.04-10.96,11.39-22.57,23.95-34.82,37.72-12.25,13.75-24.82,28.35-37.72,43.82-12.89,15.48-25.57,30.94-38.03,46.42-12.48,15.48-24.28,30.63-35.45,45.45-11.17,14.82-21.06,28.49-29.66,40.96-.87,1.7-1.93,3.75-3.22,6.09-1.28,2.38-2.37,5.08-3.22,8.07-8.18.43-14.31,1.61-18.38,3.54-4.09,1.94-8.28,4.84-12.57,8.72-2.58.85-4.1.4-4.52-1.3,1.3-9.03,2.7-21.05,4.2-36.11,1.49-15.01,3-31.58,4.52-49.64,1.48-18.06,2.89-36.64,4.18-55.76,1.29-19.11,2.58-37.19,3.87-54.17,1.3-16.97,2.36-31.91,3.23-44.8.83-12.89,1.5-22.12,1.92-27.72,0-8.16-3.46-8.16-10.32,0-12.47,14.18-27.19,32.02-44.16,53.5-16.99,21.49-34.07,43.84-51.26,67.04-17.2,23.22-33.42,46.01-48.68,68.37-15.25,22.35-27.4,41.69-36.42,58-7.74,14.19-12.36,24.93-13.85,32.25-1.54,7.3-2.06,13.31-1.62,18.06.42,4.72,0,6.77-1.29,6.11-1.3-.64-2.58-2.25-3.87-4.83-1.3-2.56-2.36-6.43-3.22-11.6-.86-5.15-2.36-12.26-4.51-21.28Z"/>
    <path class="cls-1" d="M762.35,343.64c-9.89,12.03-20.73,24.18-32.55,36.41-11.83,12.27-23.76,23.32-35.8,33.23-12.02,9.89-23.96,17.83-35.77,23.86-11.84,5.99-22.67,9.01-32.56,9.01-8.61,0-14.63-2.17-18.07-6.45-3.44-4.3-5.15-9.66-5.15-16.08,0-6.03,1.82-14.09,5.48-24.22,3.64-10.09,9.12-20.96,16.44-32.56-5.59,7.31-12.05,15.09-19.34,23.22-7.31,8.18-14.84,15.6-22.56,22.25-7.76,6.67-15.47,12.24-23.22,16.78-7.72,4.51-14.62,6.75-20.63,6.75-9.02,0-13.53-4.51-13.53-13.54,0-9.86,3.86-22.35,11.59-37.41,7.74-15.02,18.16-29.54,31.29-43.51,13.1-13.95,28.03-26.01,44.81-36.09,16.75-10.07,34.16-15.17,52.22-15.17,2.14-4.29,4.08-7.29,5.8-9.01,1.71-1.73,3.43-3.01,5.17-3.87l18.04-5.15,1.3.63c-2.14,2.16-4.19,4.86-6.13,8.07-1.92,3.22-3.99,6.56-6.13,9.98,2.14,0,5.38.21,9.68.65,4.3.43,7.52.87,9.67,1.29,2.14.86,3.22,1.92,3.22,3.22s-.65,1.93-1.93,1.93c-2.58-.86-6.44-1.49-11.6-1.93-5.15-.43-9.04-.65-11.6-.65-19.78,34.81-34.29,62.45-43.52,82.87-9.26,20.4-13.87,35.56-13.87,45.46,0,3.83.97,7.08,2.9,9.64,1.94,2.58,5.91,3.88,11.94,3.88,6.87,0,15.04-2.49,24.48-7.43,9.47-4.91,19.57-11.79,30.31-20.61,10.74-8.82,21.82-19.03,33.21-30.65,11.39-11.6,22.25-23.83,32.56-36.72.86-1.32,1.71-1.64,2.59-1,.84.65,1.27,1.61,1.27,2.91ZM661.78,294.63c-14.62,0-28.59,5.17-41.91,15.48-13.34,10.31-25.15,22.46-35.44,36.42-10.34,13.98-18.62,27.83-24.85,41.6-6.22,13.77-9.34,23.84-9.34,30.3,0,3.44,1.31,5.19,3.86,5.19s6.57-1.75,11.94-5.19c5.37-3.44,11.51-8.07,18.39-13.86,6.84-5.81,13.85-12.58,20.94-20.33,7.09-7.74,13.63-16.11,19.66-25.14,6.86-10.3,13.52-21.27,19.98-32.87,6.44-11.61,12.25-21.92,17.4-30.95l-.63-.65Z"/>
    <path class="cls-1" d="M867.44,300.46c-2.57,3-5.27,6.64-8.06,10.95-2.81,4.29-4.61,7.52-5.47,9.67-.44,1.3-1.29,1.93-2.58,1.93-.43,0-1.07-.63-1.92-1.93-.88-1.29-2.06-2.69-3.56-4.2-1.5-1.5-3.55-2.9-6.12-4.2-2.57-1.27-6.23-1.92-10.95-1.92-5.6,0-11.85,1.92-18.7,5.8-6.88,3.87-12.9,8.18-18.07,12.89-8.16,6.88-15.36,14.43-21.59,22.57-6.25,8.18-12.16,16.65-17.74,25.46-5.59,8.82-10.96,17.87-16.12,27.1-5.15,9.24-10.75,18.6-16.77,28.05-.43,1.27-1.72,1.91-3.86,1.91-.85,0-2.69-1.28-5.48-3.84-2.8-2.6-4.19-4.52-4.19-5.82,0-2.58,1.51-6.45,4.51-11.6,6.88-12.02,13.87-24.17,20.96-36.43,7.11-12.24,13.76-23.75,19.99-34.51,6.23-10.74,11.7-20.07,16.45-28.04,4.72-7.93,7.93-13.84,9.67-17.72,2.13-3.86,3.64-5.81,4.5-5.81s3,1.08,6.46,3.23c3.43,2.15,5.14,5.15,5.14,9.03,0,1.28-.74,3.46-2.26,6.44-1.5,3-3.22,6.13-5.14,9.34-1.93,3.23-3.77,6.37-5.48,9.35-1.73,3.01-3.02,5.14-3.86,6.46-1.3,2.14-1.52,3.21-.66,3.21s1.93-.65,3.22-1.93c4.3-4.3,9.56-9.02,15.81-14.18,6.21-5.16,12.78-9.98,19.66-14.5,6.86-4.51,13.63-8.28,20.3-11.29,6.67-2.99,12.58-4.51,17.72-4.51,3.86,0,7.21.96,10,2.9,2.8,1.94,4.19,3.98,4.19,6.14Z"/>
    <path class="cls-1" d="M993.15,300.46c-2.55,3-5.27,6.64-8.05,10.95-2.8,4.29-4.61,7.52-5.46,9.67-.47,1.3-1.29,1.93-2.6,1.93-.43,0-1.05-.63-1.9-1.93-.9-1.29-2.08-2.69-3.58-4.2-1.5-1.5-3.55-2.9-6.1-4.2-2.58-1.27-6.24-1.92-10.95-1.92-5.62,0-11.86,1.92-18.74,5.8-6.87,3.87-12.86,8.18-18.04,12.89-8.15,6.88-15.36,14.43-21.61,22.57-6.23,8.18-12.14,16.65-17.72,25.46-5.59,8.82-10.96,17.87-16.1,27.1-5.18,9.24-10.77,18.6-16.78,28.05-.43,1.27-1.72,1.91-3.86,1.91-.87,0-2.68-1.28-5.48-3.84-2.79-2.6-4.19-4.52-4.19-5.82,0-2.58,1.51-6.45,4.51-11.6,6.87-12.02,13.87-24.17,20.95-36.43,7.1-12.24,13.76-23.75,19.99-34.51,6.22-10.74,11.7-20.07,16.45-28.04,4.72-7.93,7.94-13.84,9.67-17.72,2.13-3.86,3.65-5.81,4.51-5.81s2.99,1.08,6.42,3.23c3.45,2.15,5.16,5.15,5.16,9.03,0,1.28-.75,3.46-2.25,6.44-1.5,3-3.23,6.13-5.17,9.34-1.92,3.23-3.74,6.37-5.46,9.35-1.75,3.01-3.02,5.14-3.87,6.46-1.29,2.14-1.51,3.21-.65,3.21s1.94-.65,3.23-1.93c4.29-4.3,9.55-9.02,15.78-14.18,6.22-5.16,12.79-9.98,19.66-14.5,6.87-4.51,13.65-8.28,20.31-11.29,6.65-2.99,12.6-4.51,17.75-4.51,3.86,0,7.17.96,9.96,2.9,2.79,1.94,4.19,3.98,4.19,6.14Z"/>
    <path class="cls-1" d="M985.41,424.88c-6.02,0-10.75-1.26-14.18-3.88-3.44-2.56-5.15-6.43-5.15-11.59,0-8.61,5.25-21.39,15.78-38.36,10.54-16.95,23.32-37.08,38.39-60.28,1.68-2.14,3.08-3.75,4.19-4.83,1.05-1.07,2.24-2.04,3.53-2.9,2.14-.43,5.03-.98,8.69-1.63,3.66-.63,5.9-.95,6.76-.95,1.73,0,2.6.63,2.6,1.92-15.45,27.07-28.5,49.1-39.01,66.09-10.54,16.98-15.81,30.18-15.81,39.63,0,5.18,2.37,7.77,7.13,7.77,2.12,0,4.91-.65,8.37-1.95,3.42-1.3,7.1-3.01,10.94-5.14,3.87-2.16,7.52-4.41,10.95-6.8,3.45-2.35,6.04-4.61,7.77-6.73,3.84-3.88,9.57-13.02,17.06-27.42,7.52-14.4,16.66-31.28,27.4-50.61,5.15-9.46,10.03-17.41,14.54-23.85,4.51-6.45,8.27-9.66,11.25-9.66,1.73.87,3.35,3,4.87,6.43,1.5,3.46,2.25,6.88,2.25,10.34,0,1.72-1.93,5.68-5.83,11.91-3.83,6.23-8.78,13.54-14.8,21.92-6,8.39-12.59,17.3-19.66,26.78-7.1,9.45-13.89,18.28-20.33,26.42-15.47,23.65-31.04,48.03-46.74,73.18-15.69,25.11-31.49,49.4-47.39,72.87-15.87,23.39-32.23,45.54-48.99,66.38-16.77,20.84-34.05,39.01-51.89,54.48-17.83,15.47-36.31,27.73-55.45,36.73-19.14,9.06-39.23,13.55-60.29,13.55-12.46,0-23.62-3.01-33.5-9.02-9.91-6.03-14.84-16.56-14.84-31.61,0-3.43.32-7,.97-10.64.64-3.65,1.41-6.55,2.27-8.69.44-1.29,1.07-2.16,1.93-2.57.86-.43,1.28.19,1.28,1.93,0,11.59,4.3,22.12,12.9,31.58,8.6,9.46,23.85,14.19,45.77,14.19,17.63,0,35.15-4.41,52.55-13.22,17.4-8.82,34.39-20.54,50.94-35.13,16.55-14.63,32.56-31.61,48.03-50.94,15.45-19.35,30.4-39.56,44.8-60.59,14.4-21.09,28.04-42.25,40.93-63.53,12.91-21.29,24.72-41.38,35.47-60.29.83-1.7.83-2.33,0-1.91-.86.43-1.5.85-1.95,1.28-4.73,3.86-11.17,8.06-19.34,12.57-8.16,4.5-16.53,6.77-25.14,6.77Z"/>
    <path class="cls-1" d="M1431.17,170.18c-1.72,4.33-3.75,9.92-6.11,16.8-2.38,6.88-4.2,12.67-5.49,17.41-1.71.85-3.22.21-4.51-1.93,1.29-2.58,1.94-5.8,1.94-9.66,0-7.77-3.76-15.06-11.29-21.95-7.53-6.86-19.44-10.3-35.78-10.3-17.18,0-31.19,5.04-41.9,15.17-10.75,10.08-16.13,23.51-16.13,40.28,0,12.89,3.02,24.93,9.04,36.09,5.99,11.17,12.66,21.49,19.97,30.95,5.59,7.29,10.23,13.42,13.87,18.36,3.65,4.96,6.57,9.47,8.71,13.54,2.15,4.09,3.64,7.95,4.5,11.61.85,3.65,1.29,8.06,1.29,13.21,0,9.04-2.03,17.84-6.13,26.45-4.09,8.59-9.45,16.53-16.12,23.85-6.66,7.3-13.97,13.85-21.92,19.66-7.99,5.8-15.78,10.42-23.52,13.89-19.35,8.56-40.87,12.85-64.46,12.85-9.92,0-19.7-.85-29.37-2.57-9.67-1.72-18.59-4.51-26.74-8.37-2.16-1.29-4.08-2.48-5.78-3.56-1.75-1.06-2.83-2.26-3.22-3.54,1.68-7.3,3.72-15.56,6.1-24.83,2.36-9.24,4.4-16.86,6.14-22.88,0-.85.64-1.29,1.93-1.29s1.93,1.08,1.93,3.22c-1.31,3.85-1.93,7.72-1.93,11.59,0,12.04,4.9,22.69,14.8,31.91,9.91,9.27,25.16,13.89,45.78,13.89,7.72,0,15.58-.75,23.56-2.28,7.95-1.48,15.15-3.76,21.59-6.77,13.3-6,24.6-14.48,33.84-25.46,9.24-10.96,13.87-23.95,13.87-39,0-7.3-1.71-14.72-5.15-22.25-3.45-7.51-10.11-17.51-20-29.97-8.57-11.18-15.13-21.06-19.65-29.66-4.51-8.59-6.77-18.47-6.77-29.66s2.47-22.35,7.42-33.53c4.94-11.16,11.07-21.04,18.36-29.66,2.58-2.99,6.13-6.53,10.64-10.64,4.51-4.08,9.88-7.84,16.12-11.28,6.23-3.43,13.54-6.43,21.92-9.03,8.39-2.58,17.72-3.85,28.04-3.85,6.87,0,13.54.95,19.99,2.89,6.45,1.94,12.24,5.71,17.4,11.28,2.16,3.03,3.22,6.04,3.22,9.01Z"/>
    <path class="cls-1" d="M1614.3,322.38c-7.31,9.87-16.25,18.8-26.78,26.74-10.52,7.96-22.46,11.95-35.76,11.95-7.34,0-14.5-1.83-21.63-5.51-7.08-3.64-12.78-9.11-17.09-16.43-2.97,6.88-6.87,14.72-11.57,23.53-4.76,8.8-10.33,17.63-16.8,26.46-6.45,8.8-13.62,16.88-21.6,24.17-7.93,7.3-16.42,13.33-25.44,18.05-7.74,3.45-14.2,5.14-19.35,5.14-15.46,0-23.21-6.85-23.21-20.6,0-7.77,1.39-15.7,4.18-23.87,2.81-8.15,6.34-16.11,10.65-23.85,4.3-7.75,8.92-15.05,13.87-21.92,4.93-6.85,9.56-12.49,13.87-16.78,9.02-9.86,19.33-18.25,30.92-25.13,11.62-6.87,24.1-10.96,37.44-12.26.82-3.42,2.12-7.4,3.83-11.92,1.73-4.51,4.73-7.18,9.02-8.05,2.19-.42,4.31-.86,6.46-1.3,2.19-.43,4.08-1.08,5.83-1.93,1.29-.85,2.58-.96,3.84-.32,1.32.65,1.51,1.83.65,3.56-3.02,4.72-5.25,10.75-6.74,18.04-1.54,7.32-2.27,15.27-2.27,23.86,0,12.05,2.27,21.92,6.76,29.66,4.54,7.73,12.37,11.61,23.54,11.61s21.28-3.66,30.31-10.96c9.02-7.3,16.52-15.27,22.55-23.86.85-2.12,2.26-2.78,4.22-1.93,1.91.87,2.01,2.14.31,3.88ZM1507.89,326.88c-.85-3.87-1.5-8.39-1.89-13.54-.44-5.15-.68-10.1-.68-14.82,0-2.14-.85-3.23-2.55-3.23-4.76,0-9.68,1.61-14.83,4.84-5.17,3.23-10.34,7.51-15.44,12.89-5.21,5.37-10.36,11.5-15.52,18.37-5.15,6.87-9.89,13.97-14.19,21.28-5.59,9.46-10.62,19.66-15.14,30.61-4.52,10.95-6.57,21.4-6.13,31.29,0,3.02.55,5.78,1.61,8.38,1.09,2.58,3.56,3.86,7.43,3.86,7.29,0,15.25-4.09,23.84-12.24,8.63-8.15,16.77-17.75,24.52-28.68,7.7-10.98,14.28-22.03,19.63-33.22,5.41-11.16,8.49-19.75,9.34-25.79Z"/>
    <path class="cls-1" d="M1867,11.61c0,6.02-2.37,14.82-7.08,26.44-4.73,11.6-11.51,25.03-20.33,40.28-8.8,15.27-19.54,31.6-32.23,48.99-12.68,17.43-27.08,34.73-43.18,51.93-16.14,17.19-33.85,33.64-53.2,49.32-19.35,15.69-39.96,29.55-61.89,41.56-3.86,6.91-9.26,16.14-16.11,27.74-6.91,11.6-13.65,23.85-20.31,36.76-6.67,12.89-12.5,25.57-17.44,38.04-4.91,12.47-7.38,22.98-7.38,31.6,0,13.75,6.19,20.62,18.69,20.62,10.72,0,21.93-3.01,33.52-9.01,11.62-6.04,22.68-13.32,33.21-21.95,10.53-8.57,20.39-17.72,29.66-27.38,9.23-9.69,17.08-18.38,23.52-26.13,3.01-2.99,4.74-3.76,5.17-2.26.43,1.5-.21,3.14-1.92,4.84-7.74,9.47-16.88,19.57-27.42,30.31-10.52,10.77-21.69,20.62-33.52,29.66-11.83,9.02-24.15,16.55-37.05,22.57-12.89,6.01-25.8,9.01-38.72,9.01-11.15,0-19.25-2.66-24.15-8.04-4.93-5.36-7.44-11.93-7.44-19.67s3.33-18.81,10.04-33.2c6.63-14.39,14.5-29.54,23.49-45.46,9.04-15.9,18.09-30.95,27.08-45.12,9.03-14.19,15.72-24.93,19.98-32.25,7.35-12.44,14.96-25.46,22.93-38.99,7.94-13.55,15.79-26.77,23.54-39.64,7.74-12.89,15.13-25.26,22.24-37.08,7.1-11.83,13.65-22.25,19.66-31.29,7.3-11.15,14.83-21.69,22.56-31.59,7.74-9.87,17.62-19.75,29.66-29.66,16.32-13.75,31.38-24.24,45.11-31.58,13.77-7.3,23-10.96,27.72-10.96,3.45,0,6.24.98,8.38,2.9,2.18,1.94,3.23,4.84,3.23,8.71ZM1837.99,28.36c0-6.84-2.8-10.3-8.39-10.3-2.14,0-4.49.64-7.08,1.93-2.57,1.28-5.91,3.99-9.96,8.06-4.1,4.08-9.05,9.77-14.86,17.1-5.79,7.29-13.22,16.74-22.25,28.36-3.45,4.72-8.29,11.61-14.5,20.62-6.22,9.03-14.19,20.96-23.86,35.81-9.66,14.8-21.27,33.06-34.82,54.78-13.53,21.7-29.54,47.38-48.02,77.05,25.8-14.62,49.96-32.35,72.52-53.2,22.57-20.84,42.01-42.22,58.35-64.18,16.33-21.92,29.22-43.17,38.69-63.8,9.45-20.65,14.17-38.06,14.17-52.24Z"/>
  </g>
</svg>